<svg width="13" height="18" viewBox="0 0 13 18" fill="none" xmlns="http://www.w3.org/2000/svg">
<path d="M6.01635 0.854768C6.15217 0.854723 6.28371 0.902323 6.38806 0.989278C6.49241 1.07623 6.56294 1.19703 6.58739 1.33064L6.59668 1.4351V4.91711C6.59682 5.58603 6.36583 6.23446 5.94282 6.75265C5.51981 7.27084 4.93075 7.62696 4.27534 7.76075V16.5238C4.27561 16.6688 4.22157 16.8087 4.12387 16.9159C4.02616 17.023 3.89187 17.0897 3.74745 17.1028C3.60302 17.1159 3.45892 17.0745 3.34352 16.9866C3.22812 16.8988 3.1498 16.771 3.12396 16.6283L3.11467 16.5238V7.76075C2.49275 7.63355 1.92966 7.30599 1.51165 6.82824C1.09365 6.3505 0.843774 5.74889 0.8003 5.11558L0.793336 4.91711V1.4351C0.793069 1.29008 0.847109 1.15022 0.944813 1.04305C1.04252 0.935881 1.17681 0.869177 1.32123 0.856074C1.46566 0.84297 1.60976 0.884417 1.72516 0.972251C1.84055 1.06009 1.91888 1.18794 1.94472 1.33064L1.954 1.4351V4.91711C1.95382 5.27729 2.06535 5.62867 2.27322 5.92282C2.4811 6.21696 2.77509 6.43939 3.11467 6.55946V1.4351C3.11441 1.29008 3.16845 1.15022 3.26615 1.04305C3.36385 0.935881 3.49814 0.869177 3.64257 0.856074C3.787 0.84297 3.9311 0.884417 4.0465 0.972251C4.16189 1.06009 4.24022 1.18794 4.26606 1.33064L4.27534 1.4351V6.55829C4.89978 6.33777 5.36057 5.77136 5.42789 5.09005L5.43601 4.91711V1.4351C5.43601 1.28119 5.49715 1.13358 5.60599 1.02474C5.71482 0.915911 5.86243 0.854768 6.01635 0.854768V0.854768ZM11.8197 0.854768C11.9555 0.854723 12.0871 0.902323 12.1914 0.989278C12.2957 1.07623 12.3663 1.19703 12.3907 1.33064L12.4 1.4351V16.5238C12.4003 16.6688 12.3463 16.8087 12.2485 16.9159C12.1508 17.023 12.0166 17.0897 11.8721 17.1028C11.7277 17.1159 11.5836 17.0745 11.4682 16.9866C11.3528 16.8988 11.2745 16.771 11.2486 16.6283L11.2394 16.5238V10.1401H9.49835C9.36252 10.1402 9.23098 10.0926 9.12664 10.0056C9.02229 9.91865 8.95175 9.79785 8.9273 9.66424L8.91802 9.55978V3.75644C8.91802 2.98687 9.22373 2.24882 9.7679 1.70465C10.3121 1.16048 11.0501 0.854768 11.8197 0.854768V0.854768Z" fill="#1E1E1E"/>
</svg>
