<svg width="14" height="20" viewBox="0 0 14 20" fill="none" xmlns="http://www.w3.org/2000/svg">
<path d="M6.10693 0.00125071C6.26575 0.00119776 6.41955 0.0568528 6.54155 0.158524C6.66356 0.260194 6.74604 0.401439 6.77462 0.55766L6.78548 0.679799V4.75109C6.78564 5.53322 6.51557 6.29138 6.02096 6.89727C5.52636 7.50315 4.83762 7.91954 4.07129 8.07597V18.322C4.0716 18.4916 4.00842 18.6551 3.89418 18.7804C3.77994 18.9058 3.62292 18.9837 3.45405 18.9991C3.28518 19.0144 3.11669 18.9659 2.98177 18.8632C2.84684 18.7605 2.75526 18.611 2.72505 18.4442L2.71419 18.322V8.07597C1.98701 7.92725 1.32863 7.54426 0.839884 6.98566C0.351138 6.42705 0.0589753 5.72364 0.00814378 4.98315L1.15107e-06 4.75109V0.679799C-0.000310999 0.510235 0.0628741 0.346699 0.177114 0.221395C0.291353 0.09609 0.448367 0.0180978 0.617238 0.00277693C0.786108 -0.012544 0.954595 0.0359166 1.08952 0.138615C1.22445 0.241314 1.31603 0.390809 1.34624 0.55766L1.3571 0.679799V4.75109C1.35688 5.17223 1.48728 5.58307 1.73034 5.927C1.97339 6.27092 2.31714 6.531 2.71419 6.67138V0.679799C2.71388 0.510235 2.77707 0.346699 2.89131 0.221395C3.00554 0.09609 3.16256 0.0180978 3.33143 0.00277693C3.5003 -0.012544 3.66879 0.0359166 3.80371 0.138615C3.93864 0.241314 4.03022 0.390809 4.06043 0.55766L4.07129 0.679799V6.67002C4.80141 6.41217 5.34017 5.74991 5.41889 4.95329L5.42838 4.75109V0.679799C5.42838 0.499837 5.49987 0.327245 5.62713 0.199993C5.75438 0.0727405 5.92697 0.00125071 6.10693 0.00125071ZM12.8924 0.00125071C13.0512 0.00119776 13.205 0.0568528 13.327 0.158524C13.449 0.260194 13.5315 0.401439 13.5601 0.55766L13.571 0.679799V18.322C13.5713 18.4916 13.5081 18.6551 13.3938 18.7804C13.2796 18.9058 13.1226 18.9837 12.9537 18.9991C12.7849 19.0144 12.6164 18.9659 12.4814 18.8632C12.3465 18.7605 12.2549 18.611 12.2247 18.4442L12.2139 18.322V10.858H10.1782C10.0194 10.8581 9.8656 10.8024 9.7436 10.7007C9.62159 10.5991 9.53912 10.4578 9.51053 10.3016L9.49967 10.1795V3.39399C9.49967 2.49418 9.85712 1.63122 10.4934 0.994961C11.1296 0.358699 11.9926 0.00125071 12.8924 0.00125071Z" fill="#1E1E1E"/>
</svg>
