<svg width="14" height="17" viewBox="0 0 14 17" fill="none" xmlns="http://www.w3.org/2000/svg">
<path d="M9.21102 1.04232C9.33618 0.994197 9.43852 0.896737 9.49632 0.77065C9.55411 0.644563 9.5628 0.499787 9.52053 0.367085C9.47826 0.234382 9.38837 0.124211 9.26995 0.0599814C9.15154 -0.00424857 9.01393 -0.0174756 8.88637 0.023111C7.92574 0.358548 7.32766 1.18639 6.97536 2.07336C6.92804 2.19325 6.88466 2.31481 6.84529 2.43783C6.65344 2.05631 6.40798 1.70728 6.11714 1.40249C5.7235 0.988359 5.25333 0.663136 4.73554 0.446814C4.21774 0.230493 3.66327 0.127647 3.10622 0.144599C2.51325 0.161801 2.03805 0.660656 2.02167 1.28315C2.00552 1.86794 2.10349 2.45002 2.30955 2.9936C2.51561 3.53717 2.82541 4.03076 3.21989 4.444L3.25164 4.47625C2.39137 4.67188 1.61395 5.15305 1.03443 5.84856C0.454904 6.54408 0.104069 7.41697 0.0338433 8.33808L0.0276985 8.41763C-0.107192 10.1887 0.252614 11.9626 1.06309 13.5223L1.43075 14.2286C1.44099 14.248 1.45123 14.2663 1.46352 14.2846L2.48764 15.7897C2.71968 16.131 3.01976 16.4152 3.36701 16.6224C3.71427 16.8297 4.10037 16.955 4.49844 16.9897C4.89651 17.0243 5.297 16.9676 5.67205 16.8233C6.0471 16.679 6.3877 16.4507 6.67017 16.1542C6.71353 16.1086 6.76502 16.0725 6.82169 16.0479C6.87836 16.0232 6.93911 16.0105 7.00045 16.0105C7.06179 16.0105 7.12253 16.0232 7.1792 16.0479C7.23587 16.0725 7.28736 16.1086 7.33073 16.1542C7.61312 16.4507 7.95367 16.6791 8.32868 16.8235C8.70368 16.9679 9.10415 17.0247 9.50222 16.9902C9.90029 16.9556 10.2864 16.8304 10.6337 16.6232C10.981 16.4161 11.2811 16.132 11.5132 15.7908L12.5374 14.2846C12.5494 14.2666 12.5603 14.248 12.5701 14.2286L12.9378 13.5223C13.7479 11.9625 14.1074 10.1886 13.9722 8.41763L13.9671 8.33808C13.9217 7.74438 13.7594 7.16704 13.4904 6.64264C13.2214 6.11824 12.8516 5.65821 12.4044 5.29172C11.9572 4.92522 11.4423 4.66024 10.8924 4.51358C10.3425 4.36691 9.76962 4.34175 9.20999 4.4397L7.51302 4.73643C7.52326 4.00427 7.64616 3.17966 7.92165 2.48621C8.2084 1.7605 8.63444 1.24445 9.21102 1.04232V1.04232ZM3.83437 7.49303C3.67714 7.54522 3.53131 7.62956 3.40528 7.7412C3.27925 7.85283 3.17552 7.98956 3.10007 8.14348C2.91061 8.51762 2.78054 9.13474 2.90037 10.141C2.9148 10.2812 2.87624 10.4216 2.793 10.5322C2.70975 10.6427 2.58848 10.7146 2.45529 10.7322C2.3221 10.7498 2.18765 10.7118 2.08088 10.6264C1.97411 10.541 1.90356 10.4149 1.88444 10.2754C1.74823 9.13151 1.87419 8.27034 2.19679 7.6371C2.52451 6.99203 3.02326 6.64369 3.51074 6.47274C3.63963 6.42769 3.78028 6.43823 3.90175 6.50205C4.02323 6.56586 4.11559 6.67772 4.1585 6.81302C4.20142 6.94832 4.19138 7.09597 4.13059 7.2235C4.0698 7.35103 3.96325 7.44798 3.83437 7.49303V7.49303Z" fill="#1E1E1E"/>
</svg>
