<svg width="16" height="19" viewBox="0 0 16 19" fill="none" xmlns="http://www.w3.org/2000/svg">
<path d="M10.5269 1.13472C10.6699 1.08233 10.7869 0.976232 10.8529 0.838968C10.919 0.701703 10.9289 0.544093 10.8806 0.399627C10.8323 0.25516 10.7296 0.135223 10.5942 0.0652988C10.4589 -0.00462521 10.3016 -0.0190248 10.1559 0.0251597C9.05799 0.390333 8.37446 1.29156 7.97184 2.25716C7.91776 2.38768 7.86818 2.52002 7.82319 2.65394C7.60393 2.2386 7.3234 1.85863 6.99102 1.52682C6.54114 1.07598 6.0038 0.721923 5.41204 0.486425C4.82028 0.250927 4.18659 0.138963 3.54996 0.157418C2.87228 0.176145 2.3292 0.719223 2.31048 1.3969C2.29202 2.03354 2.40399 2.66722 2.63948 3.25898C2.87498 3.85074 3.22904 4.38808 3.67988 4.83796L3.71616 4.87307C2.733 5.08604 1.84452 5.60987 1.1822 6.36704C0.51989 7.12421 0.118936 8.07449 0.038678 9.07725L0.0316554 9.16386C-0.122505 11.0919 0.288701 13.0231 1.21496 14.721L1.63514 15.49C1.64685 15.5111 1.65855 15.531 1.67259 15.5509L2.84302 17.1895C3.1082 17.5611 3.45115 17.8704 3.84802 18.096C4.24488 18.3216 4.68613 18.458 5.14107 18.4958C5.59601 18.5336 6.05371 18.4717 6.48234 18.3147C6.91097 18.1576 7.30023 17.909 7.62305 17.5863C7.67261 17.5367 7.73146 17.4973 7.79622 17.4705C7.86099 17.4437 7.93041 17.4299 8.00051 17.4299C8.07062 17.4299 8.14003 17.4437 8.2048 17.4705C8.26957 17.4973 8.32841 17.5367 8.37797 17.5863C8.70071 17.9091 9.08991 18.1577 9.51849 18.3149C9.94707 18.4721 10.4047 18.534 10.8597 18.4963C11.3146 18.4587 11.7559 18.3224 12.1528 18.0969C12.5497 17.8714 12.8927 17.5622 13.158 17.1906L14.3284 15.5509C14.3422 15.5314 14.3547 15.5111 14.3659 15.49L14.7861 14.721C15.7119 13.0229 16.1227 11.0918 15.9682 9.16386L15.9623 9.07725C15.9105 8.43092 15.7251 7.80239 15.4176 7.23151C15.1102 6.66062 14.6875 6.15981 14.1764 5.76083C13.6653 5.36184 13.0769 5.07337 12.4485 4.91371C11.82 4.75404 11.1653 4.72665 10.5257 4.83328L8.58631 5.15631C8.59801 4.35925 8.73847 3.46153 9.05331 2.70661C9.38103 1.91657 9.86793 1.35477 10.5269 1.13472ZM4.38213 8.15729C4.20245 8.2141 4.03578 8.30592 3.89175 8.42745C3.74772 8.54899 3.62917 8.69783 3.54294 8.8654C3.32641 9.27271 3.17776 9.94453 3.3147 11.0401C3.3312 11.1926 3.28713 11.3455 3.192 11.4659C3.09686 11.5862 2.95826 11.6644 2.80605 11.6836C2.65383 11.7028 2.50017 11.6614 2.37814 11.5684C2.25612 11.4754 2.1755 11.3382 2.15364 11.1864C1.99797 9.94102 2.14194 9.00351 2.51062 8.31413C2.88516 7.61187 3.45516 7.23265 4.01228 7.04655C4.15957 6.99751 4.32031 7.00898 4.45915 7.07845C4.59798 7.14792 4.70353 7.2697 4.75257 7.41699C4.80162 7.56429 4.79015 7.72503 4.72067 7.86386C4.6512 8.0027 4.52943 8.10824 4.38213 8.15729Z" fill="#1E1E1E"/>
</svg>
