<svg width="21" height="21" viewBox="0 0 21 21" fill="none" xmlns="http://www.w3.org/2000/svg">
<path d="M20.4289 2.75243L0.0160987 9.96591C0.0160987 9.96591 -0.0592058 11.5823 0.115921 12.9238C0.291048 14.2653 0.537977 14.9868 0.537977 14.9868C0.537977 14.9868 1.20871 18.0445 5.11229 19.5611C9.01587 21.0777 13.0105 19.3562 14.2119 18.6907C15.6549 17.8922 17.5393 16.0498 18.2853 15.1304C19.0314 14.211 20.4779 12.1287 20.6513 10.7855C20.8247 9.44228 21.0068 7.31974 20.9998 5.97652C20.9875 3.98708 20.4289 2.75243 20.4289 2.75243Z" fill="#686868"/>
<path d="M10.4572 4.14819C9.28907 4.42139 5.55887 4.84345 4.66397 5.09213C3.76907 5.34081 2.53618 5.82416 2.1509 6.12888C1.52044 6.62799 0.0055942 9.16908 0.0143505 9.96591C0.0283607 11.3512 0.543234 13.0622 0.991559 13.4755C1.31729 13.7767 3.84437 17.4228 7.27511 17.4473C10.7058 17.4718 18.2643 12.3004 18.5866 11.8538C18.9105 11.4055 20.0314 9.2619 20.3431 7.90817C20.618 6.71205 20.9665 4.14119 20.3764 2.58081C19.9228 1.37944 18.851 0.270886 18.1207 0.12553C16.6759 -0.159926 15.8528 0.120277 15.6287 0.195581C15.4045 0.270886 15.021 2.60182 14.063 2.95558C12.6463 3.47746 10.4572 4.14819 10.4572 4.14819Z" fill="#424242"/>
<path d="M14.8528 2.90129C15.8721 2.29886 15.9789 0.104515 15.9789 0.104515C15.9789 0.104515 15.1978 0.155302 14.3275 0.861063C13.4571 1.56682 12.4518 2.82599 11.9562 3.18675C11.4606 3.54751 10.4572 4.1482 10.4572 4.1482C10.4572 4.1482 13.282 3.82771 14.8528 2.90129Z" fill="#1E1E1E"/>
<path d="M16.0385 5.4669C16.5761 7.1201 18.5288 7.64198 19.0839 7.49312C19.6391 7.34251 19.9841 6.12713 19.9385 4.3566C19.893 2.58607 18.9929 1.59485 18.1522 1.65614C17.4325 1.70693 16.4255 2.41094 16.0507 3.48622C15.8327 4.12777 15.8284 4.8227 16.0385 5.4669Z" fill="#1E1E1E"/>
<path d="M12.7513 5.06235C12.9842 5.29527 12.3468 5.97827 12.7058 7.04304C13.0665 8.10781 13.6655 8.40903 13.6217 8.72426C13.5779 9.03949 11.0859 12.19 9.33108 12.8502C7.57631 13.5105 2.70603 13.2898 1.81289 10.81C1.1369 8.93441 2.56418 7.31624 2.93895 7.01327C3.50811 6.55269 4.07202 6.20068 4.9354 6.03781C5.26464 5.97652 7.72692 5.6035 9.18223 5.45289C10.6358 5.30228 12.4816 4.79266 12.7513 5.06235Z" fill="#1E1E1E"/>
<path d="M8.60957 6.33728C8.73216 6.90644 7.0632 7.46335 5.77426 8.40728C4.81982 9.10604 4.09305 10.388 3.2682 9.87835C2.44335 9.36873 3.60619 7.39855 4.04926 7.05705C4.57289 6.65251 8.47472 5.70682 8.60957 6.33728Z" fill="#2B2B2B"/>
<path d="M13.1524 2.93281C13.2785 3.21302 14.2031 2.52827 14.6532 2.15175C15.0175 1.84878 15.4588 1.57383 15.2241 1.20606C14.9544 0.785758 14.4746 1.14652 14.0087 1.64038C13.704 1.96436 13.0158 2.63335 13.1524 2.93281Z" fill="#2B2B2B"/>
<path d="M6.25413 14.6506C6.95113 14.8712 6.70771 17.3142 7.22959 17.2915C7.83377 17.267 7.39245 15.218 7.94761 14.7241C8.50276 14.2285 9.20152 14.3091 10.2067 13.8134C11.212 13.3178 12.317 12.3862 13.0963 11.4703C13.8774 10.5543 14.7478 9.51934 15.1523 9.20411C15.5569 8.88888 17.6742 8.25842 18.4079 8.76979C19.1435 9.27941 18.8738 11.4405 18.8738 11.4405C18.8738 11.4405 17.4412 14.0078 14.5604 15.7118C11.6796 17.4158 10.0404 18.0918 6.53433 17.6908C3.02829 17.2897 0.925018 13.4054 0.925018 13.4054C0.925018 13.4054 2.277 13.9816 3.80586 14.232C5.33471 14.4824 5.56063 14.4316 6.25413 14.6506Z" fill="#1E1E1E"/>
<path d="M14.5709 4.10441C13.7058 4.62979 12.9352 5.6105 13.3275 6.92571C13.7198 8.24091 15.7548 9.03949 17.0945 7.75756C18.2818 6.62274 18.0016 5.29878 17.457 4.65606C16.9158 4.0151 15.6987 3.41966 14.5709 4.10441Z" fill="white"/>
<path d="M16.3852 4.69284C15.4675 4.227 14.5271 4.75939 14.2346 5.35657C13.9439 5.95375 13.9807 6.79261 14.6742 7.28997C15.4167 7.82411 16.5568 7.55616 16.9544 6.73832C17.3519 5.92048 17.1137 5.06236 16.3852 4.69284Z" fill="#686868"/>
</svg>
