<svg width="18" height="18" viewBox="0 0 18 18" fill="none" xmlns="http://www.w3.org/2000/svg">
<path d="M16.7373 3.14352L0.198102 8.98814C0.198102 8.98814 0.137088 10.2978 0.278982 11.3847C0.420876 12.4716 0.620947 13.0562 0.620947 13.0562C0.620947 13.0562 1.1644 15.5337 4.32722 16.7625C7.49005 17.9913 10.7267 16.5965 11.7 16.0573C12.8693 15.4103 14.396 13.9175 15.0005 13.1726C15.605 12.4277 16.777 10.7405 16.9175 9.6522C17.058 8.56388 17.2055 6.84412 17.1999 5.75579C17.1899 4.14387 16.7373 3.14352 16.7373 3.14352V3.14352Z" fill="#686868"/>
<path d="M8.65785 4.27441C7.71142 4.49577 4.68907 4.83773 3.96399 5.03922C3.23891 5.24071 2.23998 5.63234 1.92781 5.87923C1.41699 6.28363 0.189606 8.34252 0.196701 8.98814C0.208053 10.1105 0.625222 11.4968 0.988471 11.8317C1.25239 12.0758 3.29993 15.03 6.07963 15.0499C8.85934 15.0697 14.9835 10.8796 15.2446 10.5178C15.5071 10.1545 16.4152 8.41772 16.6678 7.32088C16.8906 6.35174 17.1729 4.26873 16.6947 3.00446C16.3272 2.03106 15.4588 1.13287 14.8671 1.0151C13.6965 0.783813 13.0296 1.01084 12.848 1.07186C12.6664 1.13287 12.3556 3.02148 11.5795 3.30811C10.4315 3.73096 8.65785 4.27441 8.65785 4.27441V4.27441Z" fill="#424242"/>
<path d="M12.2194 3.26412C13.0452 2.776 13.1318 0.99807 13.1318 0.99807C13.1318 0.99807 12.4989 1.03922 11.7937 1.61105C11.0885 2.18289 10.274 3.20311 9.87245 3.49541C9.47089 3.78771 8.65784 4.27441 8.65784 4.27441C8.65784 4.27441 10.9466 4.01474 12.2194 3.26412V3.26412Z" fill="#1E1E1E"/>
<path d="M13.18 5.34287C13.6156 6.68236 15.1977 7.1052 15.6475 6.98459C16.0973 6.86256 16.3769 5.87782 16.34 4.44327C16.3031 3.00872 15.5737 2.20559 14.8927 2.25526C14.3095 2.29641 13.4936 2.86682 13.1899 3.73805C13.0133 4.25786 13.0098 4.82092 13.18 5.34287V5.34287Z" fill="#1E1E1E"/>
<path d="M10.5166 5.0151C10.7054 5.20382 10.1889 5.75721 10.4798 6.61992C10.7721 7.48264 11.2573 7.7267 11.2219 7.98211C11.1864 8.23752 9.16723 10.7902 7.74545 11.3251C6.32367 11.8601 2.3776 11.6813 1.65394 9.67207C1.10623 8.15238 2.26266 6.84128 2.56632 6.5958C3.02747 6.22262 3.48437 5.93741 4.18391 5.80545C4.45067 5.75579 6.4457 5.45355 7.62484 5.33152C8.80257 5.2095 10.2981 4.79658 10.5166 5.0151V5.0151Z" fill="#1E1E1E"/>
<path d="M7.16084 6.04808C7.26017 6.50924 5.90791 6.96046 4.86357 7.72527C4.09025 8.29143 3.50139 9.3301 2.83307 8.91718C2.16475 8.50427 3.10692 6.90796 3.46591 6.63127C3.89018 6.30349 7.05158 5.53726 7.16084 6.04808V6.04808Z" fill="#2B2B2B"/>
<path d="M10.8416 3.28967C10.9438 3.5167 11.693 2.96189 12.0576 2.65682C12.3528 2.41134 12.7103 2.18857 12.5202 1.89059C12.3017 1.55005 11.9129 1.84235 11.5355 2.24249C11.2886 2.505 10.7309 3.04703 10.8416 3.28967V3.28967Z" fill="#2B2B2B"/>
<path d="M5.25238 12.7838C5.81712 12.9626 5.61989 14.942 6.04273 14.9236C6.53227 14.9037 6.17469 13.2435 6.6245 12.8434C7.0743 12.4418 7.64046 12.5071 8.45493 12.1055C9.2694 11.704 10.1648 10.9491 10.7962 10.207C11.429 9.4649 12.1342 8.6263 12.462 8.37089C12.7898 8.11548 14.5053 7.60466 15.0998 8.019C15.6958 8.43191 15.4773 10.1829 15.4773 10.1829C15.4773 10.1829 14.3166 12.2631 11.9824 13.6437C9.64826 15.0243 8.32013 15.572 5.47941 15.2471C2.63869 14.9221 0.93454 11.7749 0.93454 11.7749C0.93454 11.7749 2.02996 12.2418 3.2687 12.4447C4.50744 12.6476 4.69048 12.6064 5.25238 12.7838Z" fill="#1E1E1E"/>
<path d="M11.9909 4.23893C11.29 4.66461 10.6656 5.45922 10.9835 6.52485C11.3013 7.59047 12.9501 8.23751 14.0356 7.19884C14.9977 6.27937 14.7706 5.20665 14.3294 4.6859C13.8909 4.16656 12.9047 3.68412 11.9909 4.23893Z" fill="white"/>
<path d="M13.4609 4.71569C12.7174 4.33826 11.9554 4.76961 11.7185 5.25347C11.4829 5.73733 11.5127 6.41701 12.0746 6.81998C12.6763 7.25276 13.6 7.03566 13.9221 6.37302C14.2442 5.71037 14.0512 5.01509 13.4609 4.71569Z" fill="#686868"/>
</svg>
