<svg width="19" height="19" viewBox="0 0 19 19" fill="none" xmlns="http://www.w3.org/2000/svg">
<path d="M18.2033 17.296C18.2421 17.3412 18.2717 17.3937 18.2901 17.4504C18.3086 17.5071 18.3157 17.5669 18.3109 17.6263C18.3062 17.6858 18.2897 17.7437 18.2625 17.7967C18.2352 17.8498 18.1978 17.8969 18.1522 17.9354L17.1607 18.7815C17.069 18.8594 16.9503 18.8977 16.8304 18.8882C16.7105 18.8786 16.5993 18.8219 16.5212 18.7305L5.8429 6.19936C5.80419 6.15405 5.7748 6.10156 5.75642 6.04487C5.73803 5.98819 5.73101 5.92844 5.73575 5.86903C5.74049 5.80963 5.75691 5.75175 5.78406 5.6987C5.81121 5.64566 5.84855 5.59849 5.89396 5.55989L6.88671 4.71469C6.93204 4.67602 6.98454 4.64666 7.04122 4.6283C7.0979 4.60994 7.15764 4.60292 7.21703 4.60767C7.27642 4.61241 7.33429 4.62881 7.38734 4.65594C7.44039 4.68306 7.48757 4.72038 7.52618 4.76575L18.2033 17.2968" fill="#1E1E1E"/>
<path d="M7.05893 5.71278C7.02013 5.66755 6.99065 5.6151 6.97217 5.55844C6.95369 5.50179 6.94657 5.44204 6.95123 5.38263C6.9559 5.32322 6.97224 5.26531 6.99933 5.21223C7.02642 5.15915 7.06373 5.11195 7.1091 5.07331L7.5464 4.70044L7.51849 4.66838C7.44046 4.57681 7.32926 4.51999 7.20933 4.51041C7.08941 4.50084 6.9706 4.53929 6.87902 4.61731L5.88746 5.46281C5.79591 5.54095 5.73906 5.6522 5.72938 5.77217C5.7197 5.89215 5.75797 6.01107 5.83581 6.10288L16.5141 18.631C16.5527 18.6764 16.5999 18.7137 16.6529 18.7409C16.7059 18.768 16.7638 18.7845 16.8231 18.7893C16.8825 18.7941 16.9423 18.7871 16.999 18.7688C17.0557 18.7505 17.1082 18.7213 17.1536 18.6827L17.7084 18.2097L7.05893 5.7113" fill="#343434"/>
<path d="M13.8785 2.57007C16.4988 5.64451 16.1303 10.26 13.0559 12.8802C9.98207 15.4999 5.36596 15.1317 2.74603 12.0576C0.125815 8.98316 0.494533 4.36705 3.56749 1.74743C6.64341 -0.87279 11.2589 -0.504368 13.8785 2.57007Z" fill="#1E1E1E"/>
<path d="M12.7643 3.52096C14.8602 5.97849 14.5633 9.66924 12.1061 11.7643C9.64797 13.8602 5.95782 13.5633 3.86337 11.1067C1.76743 8.64799 2.0643 4.95783 4.52065 2.86278C6.97877 0.766846 10.6689 1.06372 12.7643 3.52096Z" fill="#343434"/>
</svg>
