<svg width="16" height="18" viewBox="0 0 16 18" fill="none" xmlns="http://www.w3.org/2000/svg">
<path d="M15.5054 15.6222C15.5391 15.6615 15.5647 15.707 15.5807 15.7562C15.5967 15.8054 15.6028 15.8572 15.5987 15.9088C15.5946 15.9604 15.5803 16.0106 15.5567 16.0566C15.5331 16.1027 15.5006 16.1436 15.4611 16.177L14.6009 16.9109C14.5214 16.9785 14.4183 17.0118 14.3144 17.0035C14.2104 16.9952 14.1139 16.946 14.0461 16.8666L4.7828 5.996C4.74922 5.9567 4.72372 5.91115 4.70777 5.86198C4.69182 5.81281 4.68573 5.76097 4.68985 5.70944C4.69396 5.65791 4.7082 5.6077 4.73175 5.56168C4.7553 5.51566 4.7877 5.47474 4.82709 5.44127L5.6883 4.70806C5.72761 4.67451 5.77316 4.64905 5.82233 4.63311C5.8715 4.61718 5.92332 4.6111 5.97485 4.61522C6.02637 4.61933 6.07657 4.63356 6.12259 4.65709C6.16861 4.68062 6.20953 4.71299 6.24303 4.75235L15.5054 15.623" fill="#1E1E1E"/>
<path d="M5.83767 5.57389C5.80401 5.53465 5.77844 5.48915 5.7624 5.44C5.74637 5.39086 5.7402 5.33903 5.74424 5.28749C5.74829 5.23595 5.76247 5.18572 5.78597 5.13967C5.80947 5.09362 5.84183 5.05267 5.88119 5.01916L6.26054 4.69569L6.23634 4.66788C6.16865 4.58844 6.07217 4.53915 5.96814 4.53084C5.86411 4.52254 5.76104 4.5559 5.6816 4.62358L4.82143 5.35705C4.74201 5.42483 4.69269 5.52133 4.68429 5.62541C4.67589 5.72949 4.70909 5.83265 4.77662 5.9123L14.04 16.7804C14.0734 16.8197 14.1144 16.8521 14.1603 16.8757C14.2063 16.8992 14.2565 16.9135 14.308 16.9177C14.3596 16.9218 14.4114 16.9158 14.4606 16.8999C14.5098 16.8841 14.5553 16.8587 14.5947 16.8252L15.076 16.4149L5.83767 5.5726" fill="#343434"/>
<path d="M11.7536 2.84761C14.0267 5.51467 13.7071 9.51859 11.04 11.7916C8.37347 14.0641 4.36903 13.7448 2.09626 11.078C-0.176757 8.41093 0.143104 4.40648 2.80887 2.13398C5.47721 -0.139044 9.48114 0.18056 11.7536 2.84761Z" fill="#1E1E1E"/>
<path d="M10.787 3.6725C12.6052 5.80439 12.3477 9.00609 10.2161 10.8235C8.08367 12.6417 4.88248 12.3842 3.06556 10.2531C1.24735 8.12016 1.50489 4.91898 3.63575 3.10154C5.76815 1.28333 8.96934 1.54087 10.787 3.6725" fill="#5E5E5E"/>
</svg>
