<svg width="16" height="16" viewBox="0 0 16 16" fill="none" xmlns="http://www.w3.org/2000/svg">
<path d="M12.9114 4.43886C12.9698 4.498 13.0158 4.56823 13.0467 4.64542C13.0776 4.7226 13.0928 4.80518 13.0913 4.88831C13.0899 4.97144 13.0718 5.05344 13.0382 5.12948C13.0045 5.20552 12.9561 5.27408 12.8956 5.33112L10.9689 7.1946C10.9098 7.25303 10.8396 7.29905 10.7624 7.32996C10.6852 7.36086 10.6026 7.37602 10.5195 7.37455C10.4364 7.37308 10.3544 7.355 10.2783 7.32139C10.2023 7.28777 10.1337 7.23929 10.0767 7.1788C10.0182 7.11966 9.97222 7.04943 9.94132 6.97225C9.91041 6.89506 9.89525 6.81248 9.89672 6.72935C9.89819 6.64622 9.91627 6.56423 9.94988 6.48818C9.9835 6.41214 10.032 6.34359 10.0925 6.28655L12.0191 4.42307C12.1396 4.307 12.3012 4.24348 12.4685 4.24645C12.6358 4.24941 12.7951 4.31861 12.9114 4.43886V4.43886ZM14.767 7.1867L7.1867 14.767C6.3972 15.5565 5.3264 16 4.20987 16C3.09334 16 2.02255 15.5565 1.23304 14.767C0.443539 13.9775 0 12.9067 0 11.7901C0 10.6736 0.443539 9.6028 1.23304 8.8133L8.8133 1.23304C9.6028 0.443539 10.6736 0 11.7901 0C12.9067 0 13.9775 0.443539 14.767 1.23304C15.5565 2.02255 16 3.09334 16 4.20987C16 5.3264 15.5565 6.3972 14.767 7.1867V7.1867ZM13.8668 2.1332C13.5957 1.85769 13.2724 1.63889 12.9159 1.48954C12.5594 1.34019 12.1767 1.26327 11.7901 1.26327C11.4036 1.26327 11.0209 1.34019 10.6644 1.48954C10.3078 1.63889 9.98459 1.85769 9.71345 2.1332L6.36551 5.47325L10.5268 9.63449L13.8668 6.28655C14.1404 6.01433 14.3575 5.69073 14.5057 5.33435C14.6538 4.97797 14.7301 4.59582 14.7301 4.20987C14.7301 3.82392 14.6538 3.44178 14.5057 3.08539C14.3575 2.72901 14.1404 2.40541 13.8668 2.1332V2.1332Z" fill="#1E1E1E"/>
</svg>
