<svg width="8" height="15" viewBox="0 0 8 15" fill="none" xmlns="http://www.w3.org/2000/svg">
<path d="M1.92233 10.3894C1.92233 9.6662 2.03884 9.02643 2.27184 8.4701C2.50485 7.91377 2.92557 7.43394 3.53398 7.0306C3.75405 6.89152 4.00647 6.73853 4.29126 6.57163C4.589 6.39082 4.87379 6.1822 5.14563 5.94576C5.43042 5.70932 5.66343 5.43115 5.84466 5.11127C6.03884 4.79138 6.13592 4.41586 6.13592 3.9847C6.13592 3.3032 5.91586 2.78164 5.47573 2.42003C5.0356 2.05841 4.54369 1.87761 4 1.87761C3.39159 1.87761 2.86731 2.07232 2.42718 2.46175C1.98706 2.83727 1.64401 3.25452 1.39806 3.71349L0 2.69124C0.349515 1.84284 0.893204 1.1822 1.63107 0.709318C2.38188 0.23644 3.19094 0 4.05825 0C4.7055 0 5.32686 0.146036 5.92233 0.438109C6.53074 0.716273 7.02913 1.15438 7.41748 1.75243C7.80583 2.35049 8 3.12239 8 4.06815C8 4.70793 7.89644 5.25035 7.68932 5.69541C7.49515 6.12656 7.22977 6.49513 6.8932 6.80111C6.55663 7.10709 6.17476 7.38526 5.74757 7.63561C5.42395 7.84423 5.10032 8.0598 4.7767 8.28234C4.46602 8.49096 4.20712 8.75522 4 9.0751C3.80582 9.39499 3.70874 9.8331 3.70874 10.3894H1.92233ZM1.98058 15V12.3713H3.74757V15H1.98058Z" fill="#1E1E1E"/>
</svg>
