<svg width="10" height="16" viewBox="0 0 10 16" fill="none" xmlns="http://www.w3.org/2000/svg">
<path d="M2.79299 11.359C2.79299 10.631 2.91899 9.987 3.17099 9.427C3.42299 8.867 3.87799 8.384 4.53599 7.978C4.77399 7.838 5.04699 7.684 5.35499 7.516C5.67699 7.334 5.98499 7.124 6.27899 6.886C6.58699 6.648 6.83899 6.368 7.03499 6.046C7.24499 5.724 7.34999 5.346 7.34999 4.912C7.34999 4.226 7.11199 3.701 6.63599 3.337C6.15999 2.973 5.62799 2.791 5.03999 2.791C4.38199 2.791 3.81499 2.987 3.33899 3.379C2.86299 3.757 2.49199 4.177 2.22599 4.639L0.713989 3.61C1.09199 2.756 1.67999 2.091 2.47799 1.615C3.28999 1.139 4.16499 0.901001 5.10299 0.901001C5.80299 0.901001 6.47499 1.048 7.11899 1.342C7.77699 1.622 8.31599 2.063 8.73599 2.665C9.15599 3.267 9.36599 4.044 9.36599 4.996C9.36599 5.64 9.25399 6.186 9.02999 6.634C8.81999 7.068 8.53299 7.439 8.16899 7.747C7.80499 8.055 7.39199 8.335 6.92999 8.587C6.57999 8.797 6.22999 9.014 5.87999 9.238C5.54399 9.448 5.26399 9.714 5.03999 10.036C4.82999 10.358 4.72499 10.799 4.72499 11.359H2.79299ZM2.85599 16V13.354H4.76699V16H2.85599Z" fill="#1E1E1E"/>
</svg>
