<svg width="16" height="15" viewBox="0 0 16 15" fill="none" xmlns="http://www.w3.org/2000/svg">
<path d="M14.2857 0H1.71429C1.25977 0.000443167 0.824013 0.169909 0.502625 0.471211C0.181236 0.772512 0.000472712 1.18104 0 1.60714V13.3929C0.000472712 13.819 0.181236 14.2275 0.502625 14.5288C0.824013 14.8301 1.25977 14.9996 1.71429 15H14.2857C14.7402 14.9996 15.176 14.8301 15.4974 14.5288C15.8188 14.2275 15.9995 13.819 16 13.3929V1.60714C15.9995 1.18104 15.8188 0.772512 15.4974 0.471211C15.176 0.169909 14.7402 0.000443167 14.2857 0ZM13.6889 5.52455L11.8154 7.59141C11.6536 7.77182 11.425 7.88808 11.1755 7.91679C10.926 7.94549 10.6742 7.8845 10.4707 7.74609C10.0064 7.43504 9.06821 6.91272 8 6.91272C6.93179 6.91272 5.99357 7.43504 5.52929 7.74609C5.3258 7.88442 5.07399 7.94536 4.82451 7.91666C4.57504 7.88796 4.34641 7.77175 4.18464 7.59141L2.31107 5.52455C2.13309 5.32751 2.03666 5.077 2.03942 4.81881C2.04217 4.56062 2.14392 4.31197 2.32607 4.1183C3.00214 3.4048 4.90821 1.74542 8 1.74542C11.0918 1.74542 12.9979 3.4058 13.6739 4.1183C13.8561 4.31197 13.9578 4.56062 13.9606 4.81881C13.9633 5.077 13.8669 5.32751 13.6889 5.52455Z" fill="#1E1E1E"/>
</svg>
