<svg width="17" height="17" viewBox="0 0 17 17" fill="none" xmlns="http://www.w3.org/2000/svg">
<path d="M15.1786 0H1.82143C1.33851 0.000502256 0.875514 0.192564 0.534039 0.534039C0.192564 0.875514 0.000502256 1.33851 0 1.82143V15.1786C0.000502256 15.6615 0.192564 16.1245 0.534039 16.466C0.875514 16.8074 1.33851 16.9995 1.82143 17H15.1786C15.6615 16.9995 16.1245 16.8074 16.466 16.466C16.8074 16.1245 16.9995 15.6615 17 15.1786V1.82143C16.9995 1.33851 16.8074 0.875514 16.466 0.534039C16.1245 0.192564 15.6615 0.000502256 15.1786 0ZM14.5445 6.26116L12.5538 8.60359C12.382 8.80806 12.1391 8.93983 11.874 8.97236C11.6089 9.00489 11.3413 8.93576 11.1251 8.77891C10.6318 8.42638 9.63498 7.83442 8.5 7.83442C7.36502 7.83442 6.36817 8.42638 5.87487 8.77891C5.65867 8.93568 5.39111 9.00475 5.12605 8.97222C4.86098 8.93969 4.61807 8.80798 4.44618 8.60359L2.45551 6.26116C2.2664 6.03784 2.16395 5.75394 2.16688 5.46132C2.16981 5.1687 2.27791 4.8869 2.47145 4.66741C3.18978 3.85877 5.21498 1.97815 8.5 1.97815C11.785 1.97815 13.8102 3.85991 14.5285 4.66741C14.7221 4.8869 14.8302 5.1687 14.8331 5.46132C14.836 5.75394 14.7336 6.03784 14.5445 6.26116Z" fill="#1E1E1E"/>
</svg>
