<svg width="11" height="17" viewBox="0 0 11 17" fill="none" xmlns="http://www.w3.org/2000/svg">
<path d="M6.34615 3.16279C7.27692 3.16279 8.03846 2.45116 8.03846 1.5814C8.03846 0.711628 7.27692 0 6.34615 0C5.41539 0 4.65385 0.711628 4.65385 1.5814C4.65385 2.45116 5.41539 3.16279 6.34615 3.16279ZM3.21539 5.85116L1.04923 16.0591C0.939231 16.5414 1.34539 17 1.87846 17H1.94615C2.34385 17 2.68231 16.747 2.77538 16.3833L4.14615 10.6744L5.92308 12.2558V16.2093C5.92308 16.6442 6.30385 17 6.76923 17C7.23462 17 7.61538 16.6442 7.61538 16.2093V11.7498C7.61538 11.3149 7.42923 10.9037 7.09077 10.6033L5.83846 9.48837L6.34615 7.11628C7.2997 8.13495 8.60507 8.8092 10.0354 9.02186C10.5431 9.09302 11 8.71349 11 8.23116C11 7.84372 10.6954 7.51954 10.2808 7.45628C8.99462 7.25861 7.92846 6.54698 7.36154 5.61395L6.51538 4.34884C6.28687 4.00738 5.93579 3.75305 5.52496 3.63136C5.11413 3.50967 4.67037 3.52856 4.27308 3.68465L1.03231 4.96558C0.725756 5.08802 0.464474 5.29196 0.280938 5.55203C0.097403 5.8121 -0.000290811 6.11684 6.50264e-07 6.42837V8.30233C6.50264e-07 8.73721 0.38077 9.09302 0.846154 9.09302C1.31154 9.09302 1.69231 8.73721 1.69231 8.30233V6.40465L3.21539 5.85116Z" fill="#1E1E1E"/>
</svg>
