<svg width="12" height="19" viewBox="0 0 12 19" fill="none" xmlns="http://www.w3.org/2000/svg">
<path d="M6.92308 3.53488C7.93846 3.53488 8.76923 2.73953 8.76923 1.76744C8.76923 0.795349 7.93846 0 6.92308 0C5.90769 0 5.07692 0.795349 5.07692 1.76744C5.07692 2.73953 5.90769 3.53488 6.92308 3.53488ZM3.50769 6.53953L1.14462 17.9484C1.02462 18.4874 1.46769 19 2.04923 19H2.12308C2.55692 19 2.92615 18.7172 3.02769 18.3107L4.52308 11.9302L6.46154 13.6977V18.1163C6.46154 18.6023 6.87692 19 7.38462 19C7.89231 19 8.30769 18.6023 8.30769 18.1163V13.1321C8.30769 12.646 8.10462 12.1865 7.73538 11.8507L6.36923 10.6047L6.92308 7.95349C7.96331 9.092 9.38735 9.84558 10.9477 10.0833C11.5015 10.1628 12 9.7386 12 9.19953C12 8.76651 11.6677 8.40419 11.2154 8.33349C9.81231 8.11256 8.64923 7.31721 8.03077 6.27442L7.10769 4.86047C6.8584 4.47884 6.4754 4.19459 6.02723 4.05858C5.57905 3.92258 5.09494 3.94369 4.66154 4.11814L1.12615 5.54977C0.791734 5.68661 0.506699 5.91454 0.306478 6.20521C0.106258 6.49588 -0.000317249 6.83647 7.09379e-07 7.18465V9.27907C7.09379e-07 9.76512 0.415385 10.1628 0.923078 10.1628C1.43077 10.1628 1.84615 9.76512 1.84615 9.27907V7.15814L3.50769 6.53953Z" fill="#1E1E1E"/>
</svg>
