<svg width="30" height="25" viewBox="0 0 30 25" fill="none" xmlns="http://www.w3.org/2000/svg">
<path d="M6.89643 24.1218C4.52414 24.1218 2.78167 23.5234 1.669 22.3268C0.556333 21.1302 0 19.1463 0 16.3751C0 14.1708 0.36739 11.7985 1.10217 9.25822C1.85794 6.71799 3.05458 4.54514 4.69209 2.73968C6.3506 0.913226 8.44997 0 10.9902 0C12.5647 0 13.8349 0.346396 14.8006 1.03919C15.7663 1.73198 16.2491 2.79216 16.2491 4.21973C16.2491 5.12246 16.0707 5.83625 15.7138 6.36109C15.3569 6.86494 14.8006 7.11686 14.0448 7.11686C13.289 7.11686 12.6907 6.84395 12.2498 6.29811C12.6277 6.10917 12.9636 5.73128 13.2575 5.16445C13.5514 4.59762 13.6984 4.0098 13.6984 3.40098C13.6984 2.83415 13.5409 2.37229 13.226 2.0154C12.9321 1.6585 12.4493 1.48006 11.7775 1.48006C10.6648 1.48006 9.60462 2.24633 8.59692 3.77887C7.58922 5.29041 6.77047 7.20084 6.14066 9.51015C5.53184 11.8195 5.22743 14.0448 5.22743 16.1861C5.22743 17.7817 5.50035 18.9993 6.04619 19.8391C6.59202 20.6788 7.57873 21.0987 9.0063 21.0987C10.2449 21.0987 11.3891 20.8258 12.4388 20.2799C13.4885 19.7341 14.3912 18.9573 15.147 17.9496L15.8712 18.2645C15.3464 19.5871 14.5696 20.6893 13.5409 21.571C12.5122 22.4528 11.4101 23.1036 10.2344 23.5234C9.05878 23.9223 7.94612 24.1218 6.89643 24.1218Z" fill="white"/>
<path d="M22.7257 24.0098C20.8806 24.0098 19.5253 23.5444 18.6599 22.6137C17.7945 21.683 17.3618 20.14 17.3618 17.9846C17.3618 16.2701 17.6476 14.425 18.2191 12.4493C18.8069 10.4735 19.7376 8.78354 21.0112 7.37929C22.3012 5.95872 23.934 5.24843 25.9098 5.24843C27.1344 5.24843 28.1223 5.51785 28.8734 6.05669C29.6245 6.59553 30 7.42011 30 8.53044C30 9.23257 29.8612 9.78774 29.5837 10.1959C29.3061 10.5878 28.8734 10.7838 28.2855 10.7838C27.6977 10.7838 27.2324 10.5715 26.8895 10.147C27.1834 10 27.4446 9.70609 27.6732 9.26522C27.9018 8.82436 28.0161 8.36716 28.0161 7.89364C28.0161 7.45277 27.8937 7.09354 27.6487 6.81596C27.4201 6.53838 27.0446 6.39958 26.5221 6.39958C25.6567 6.39958 24.8321 6.99557 24.0483 8.18755C23.2645 9.3632 22.6277 10.8491 22.1379 12.6452C21.6644 14.4413 21.4276 16.1722 21.4276 17.8377C21.4276 19.0786 21.6399 20.0257 22.0644 20.6788C22.4889 21.3319 23.2564 21.6585 24.3667 21.6585C25.3301 21.6585 26.22 21.4462 27.0364 21.0217C27.8528 20.5972 28.555 19.993 29.1428 19.2092L29.7061 19.4542C29.2979 20.4829 28.6938 21.3401 27.8937 22.0259C27.0936 22.7117 26.2363 23.2179 25.3219 23.5444C24.4075 23.8547 23.5421 24.0098 22.7257 24.0098Z" fill="#B6DCFF"/>
</svg>
