<svg width="19" height="19" viewBox="0 0 19 19" fill="none" xmlns="http://www.w3.org/2000/svg">
<path fill-rule="evenodd" clip-rule="evenodd" d="M2.15589 0.483202C2.15003 0.414137 2.13064 0.346901 2.0988 0.285334C2.06696 0.223767 2.0233 0.169074 1.97033 0.124379C1.91735 0.079684 1.85609 0.0458626 1.79004 0.0248459C1.72399 0.00382923 1.65445 -0.00397106 1.58538 0.00189066L0.53357 0.0916089C0.394186 0.103429 0.265197 0.170103 0.174946 0.276979C0.0846954 0.383854 0.0405672 0.522188 0.0522582 0.661583L0.225889 2.70346C0.149964 2.75641 0.0892991 2.82839 0.0499808 2.91218C0.0106624 2.99598 -0.00592588 3.08864 0.00188037 3.18087C0.00968663 3.2731 0.0416127 3.36166 0.0944553 3.43765C0.147298 3.51365 0.219198 3.57441 0.302941 3.61384L0.487655 5.78924C0.493506 5.85831 0.512905 5.92554 0.544743 5.98711C0.576581 6.04868 0.620235 6.10337 0.673212 6.14806C0.72619 6.19276 0.787452 6.22658 0.853501 6.2476C0.919551 6.26861 0.989093 6.27641 1.05816 6.27055L2.10997 6.18083C2.24935 6.16901 2.37834 6.10234 2.46859 5.99546C2.55885 5.88859 2.60297 5.75025 2.59128 5.61086L2.39601 3.31724C2.66517 3.26922 2.92904 3.2233 3.18975 3.18003C3.24517 4.05082 3.40613 5.528 3.70273 6.91916C3.89272 7.80579 4.15238 8.73147 4.51336 9.45977C4.6928 9.82286 4.92607 10.1944 5.2348 10.4878C5.50765 10.7475 5.87708 10.9771 6.33306 11.0372V13.3235C6.27569 13.3029 6.21835 13.2823 6.16101 13.2617L6.04332 13.2195C5.51293 13.0295 4.97409 12.8363 4.56244 12.7324C4.36295 12.6817 4.06055 12.6157 3.76395 12.6421C3.51077 12.6615 3.26921 12.7564 3.07048 12.9144C2.93467 13.0251 2.82539 13.1648 2.75069 13.3233C2.67598 13.4817 2.63774 13.6549 2.63878 13.8301C2.63878 14.2644 2.78708 15.3817 2.91321 16.2741C2.99098 16.825 3.0719 17.3755 3.15598 17.9255L3.17287 18.0358L3.17762 18.0648L3.17867 18.0722V18.0748L4.22204 17.9133L3.1792 18.0754C3.21965 18.3311 3.35267 18.563 3.55298 18.7271C3.75329 18.8911 4.0069 18.9758 4.26558 18.9651C4.52426 18.9543 4.76997 18.8488 4.95597 18.6688C5.14197 18.4887 5.2553 18.2465 5.27438 17.9883L5.46965 15.2566C6.05599 15.4667 6.74048 15.7089 7.41654 15.8989C8.08837 16.0878 8.82564 16.2472 9.49958 16.2472C10.1735 16.2472 10.9108 16.0878 11.5826 15.8989C12.2529 15.7105 12.9316 15.4704 13.5142 15.2619L13.7248 17.9941C13.7448 18.252 13.8589 18.4936 14.0454 18.673C14.2318 18.8524 14.4777 18.957 14.7362 18.9671C14.9947 18.9771 15.248 18.8918 15.4478 18.7274C15.6475 18.563 15.78 18.331 15.82 18.0754L14.7771 17.9133L15.82 18.0748L15.8205 18.0722L15.8215 18.0648L15.8263 18.0358L15.8432 17.9249C15.9276 17.3752 16.0086 16.8249 16.0859 16.2741C16.2121 15.3817 16.3604 14.2644 16.3604 13.8306C16.3604 13.5193 16.239 13.1667 15.9287 12.9144C15.73 12.7563 15.4884 12.6615 15.2352 12.6421C14.9386 12.6157 14.6362 12.6817 14.4362 12.7318C14.0245 12.8363 13.4862 13.0295 12.9558 13.2195L12.8382 13.2617L12.6661 13.3235V11.0399C13.6636 10.9285 14.2678 10.12 14.6009 9.47666C14.9872 8.73147 15.2394 7.78943 15.4104 6.89805C15.6785 5.50531 15.7841 4.0429 15.8184 3.18689C16.0759 3.22911 16.3372 3.27397 16.6026 3.32094L16.4074 5.61086C16.3957 5.75034 16.4399 5.88875 16.5302 5.99564C16.6206 6.10253 16.7497 6.16914 16.8892 6.18083L17.9405 6.27055C18.0095 6.27641 18.0791 6.26861 18.1451 6.2476C18.2112 6.22658 18.2724 6.19276 18.3254 6.14806C18.3784 6.10337 18.4221 6.04868 18.4539 5.98711C18.4857 5.92554 18.5051 5.85831 18.511 5.78924L18.6957 3.61384C18.7797 3.5747 18.8519 3.51408 18.905 3.4381C18.9581 3.36212 18.9902 3.27347 18.9981 3.18112C19.006 3.08876 18.9893 2.99596 18.9498 2.91209C18.9104 2.82822 18.8495 2.75626 18.7733 2.70346L18.9469 0.661583C18.9586 0.522188 18.9145 0.383854 18.8242 0.276979C18.734 0.170103 18.605 0.103429 18.4656 0.0916089L17.4138 0.00189066C17.2744 -0.00980039 17.136 0.0343278 17.0292 0.124578C16.9223 0.214829 16.8556 0.343818 16.8438 0.483202L16.6923 2.2649C16.3626 2.20689 16.0324 2.15148 15.7017 2.09866C15.6229 1.9556 15.5118 1.83281 15.3774 1.73995C15.243 1.64709 15.0889 1.58669 14.9272 1.56352C14.7655 1.54034 14.6006 1.55502 14.4455 1.6064C14.2904 1.65777 14.1494 1.74444 14.0335 1.85958C10.8264 1.4548 8.11106 1.45533 4.95984 1.85431C4.84395 1.74093 4.70351 1.65577 4.54939 1.60544C4.39528 1.5551 4.23164 1.54095 4.07117 1.56407C3.9107 1.58719 3.75772 1.64696 3.62408 1.73876C3.49044 1.83055 3.37975 1.9519 3.30058 2.09338C2.97549 2.1451 2.64459 2.20104 2.30682 2.26121L2.15589 0.482675V0.483202ZM5.7673 6.47849C5.52172 5.29077 5.36088 4.08709 5.28599 2.87657C8.205 2.52139 10.7456 2.52139 13.7169 2.88396C13.6968 3.58692 13.6071 5.09735 13.3374 6.49907C13.1791 7.32289 12.9733 8.03008 12.7268 8.50559C12.559 8.8291 12.4439 8.91988 12.4059 8.94151H6.6724C6.61118 8.87766 6.51672 8.74836 6.40483 8.52248C6.16101 8.03008 5.94463 7.30653 5.7673 6.47796V6.47849ZM11.8745 5.51111C11.8745 6.14097 11.6243 6.74504 11.1789 7.19042C10.7335 7.6358 10.1294 7.88601 9.49958 7.88601C8.86972 7.88601 8.26566 7.6358 7.82028 7.19042C7.3749 6.74504 7.12469 6.14097 7.12469 5.51111C7.12469 4.88125 7.3749 4.27719 7.82028 3.83181C8.26566 3.38643 8.86972 3.13622 9.49958 3.13622C10.1294 3.13622 10.7335 3.38643 11.1789 3.83181C11.6243 4.27719 11.8745 4.88125 11.8745 5.51111Z" fill="#1E1E1E"/>
</svg>
