<svg width="17" height="17" viewBox="0 0 17 17" fill="none" xmlns="http://www.w3.org/2000/svg">
<path fill-rule="evenodd" clip-rule="evenodd" d="M2.50813 0.933546C2.5033 0.876586 2.4873 0.821134 2.46104 0.770358C2.43479 0.719581 2.39878 0.674474 2.35509 0.637613C2.3114 0.600752 2.26087 0.572858 2.2064 0.555525C2.15193 0.538192 2.09458 0.531759 2.03762 0.536593L1.17015 0.610587C1.0552 0.620335 0.948818 0.675323 0.874386 0.763467C0.799953 0.85161 0.76356 0.965699 0.773201 1.08066L0.9164 2.76466C0.853783 2.80833 0.80375 2.86769 0.771323 2.9368C0.738896 3.00591 0.725215 3.08233 0.731653 3.15839C0.738091 3.23446 0.764422 3.3075 0.808003 3.37017C0.851584 3.43285 0.910882 3.48296 0.979947 3.51548L1.13229 5.30959C1.13711 5.36655 1.15311 5.42201 1.17937 5.47278C1.20563 5.52356 1.24163 5.56867 1.28532 5.60553C1.32901 5.64239 1.37954 5.67028 1.43401 5.68761C1.48848 5.70495 1.54584 5.71138 1.6028 5.70655L2.47026 5.63255C2.58521 5.6228 2.69159 5.56782 2.76603 5.47967C2.84046 5.39153 2.87685 5.27744 2.86721 5.16248L2.70617 3.27086C2.92815 3.23125 3.14577 3.19339 3.36079 3.1577C3.40649 3.87587 3.53924 5.09414 3.78386 6.24147C3.94055 6.9727 4.15469 7.73614 4.45241 8.33679C4.60039 8.63625 4.79278 8.94266 5.0474 9.18467C5.27243 9.39881 5.57711 9.58815 5.95317 9.63777V11.5233C5.90586 11.5063 5.85856 11.4894 5.81127 11.4724L5.71421 11.4375C5.27678 11.2809 4.83239 11.1215 4.49289 11.0358C4.32836 10.994 4.07896 10.9396 3.83435 10.9614C3.62554 10.9774 3.42632 11.0556 3.26242 11.186C3.15042 11.2772 3.06029 11.3924 2.99868 11.5231C2.93706 11.6538 2.90552 11.7967 2.90638 11.9411C2.90638 12.2993 3.02869 13.2208 3.13272 13.9568C3.19685 14.4111 3.26359 14.8651 3.33293 15.3187L3.34686 15.4097L3.35078 15.4336L3.35165 15.4397V15.4419L4.21215 15.3087L3.35208 15.4423C3.38544 15.6532 3.49515 15.8445 3.66035 15.9798C3.82555 16.1151 4.03471 16.1849 4.24805 16.1761C4.4614 16.1672 4.66404 16.0802 4.81744 15.9317C4.97084 15.7832 5.0643 15.5834 5.08005 15.3705L5.24109 13.1176C5.72466 13.2909 6.28918 13.4906 6.84674 13.6473C7.40082 13.8032 8.00887 13.9346 8.56469 13.9346C9.12051 13.9346 9.72856 13.8032 10.2826 13.6473C10.8354 13.4919 11.3952 13.2939 11.8757 13.122L12.0493 15.3753C12.0659 15.588 12.16 15.7873 12.3137 15.9352C12.4675 16.0832 12.6703 16.1695 12.8835 16.1777C13.0967 16.186 13.3056 16.1157 13.4703 15.9801C13.6351 15.8445 13.7443 15.6531 13.7773 15.4423L12.9172 15.3087L13.7773 15.4419L13.7777 15.4397L13.7786 15.4336L13.7825 15.4097L13.7965 15.3183C13.8661 14.8649 13.9328 14.411 13.9967 13.9568C14.1007 13.2208 14.223 12.2993 14.223 11.9416C14.223 11.6848 14.1229 11.394 13.867 11.186C13.7031 11.0556 13.5039 10.9773 13.295 10.9614C13.0504 10.9396 12.801 10.994 12.6361 11.0354C12.2966 11.1215 11.8526 11.2809 11.4152 11.4375L11.3181 11.4724L11.1762 11.5233V9.63994C11.9989 9.5481 12.4972 8.88129 12.7719 8.35072C13.0905 7.73614 13.2985 6.95921 13.4395 6.22406C13.6607 5.07543 13.7477 3.86934 13.776 3.16335C13.9884 3.19817 14.2039 3.23517 14.4228 3.27391L14.2617 5.16248C14.2521 5.27751 14.2886 5.39166 14.3631 5.47982C14.4376 5.56797 14.5441 5.62291 14.6591 5.63255L15.5262 5.70655C15.5831 5.71138 15.6405 5.70495 15.6949 5.68761C15.7494 5.67028 15.7999 5.64239 15.8436 5.60553C15.8873 5.56867 15.9233 5.52356 15.9496 5.47278C15.9758 5.42201 15.9918 5.36655 15.9967 5.30959L16.149 3.51548C16.2183 3.4832 16.2779 3.4332 16.3216 3.37054C16.3654 3.30788 16.3919 3.23477 16.3984 3.1586C16.4049 3.08242 16.3912 3.00589 16.3586 2.93672C16.3261 2.86755 16.2758 2.8082 16.213 2.76466L16.3562 1.08066C16.3658 0.965699 16.3294 0.85161 16.255 0.763467C16.1806 0.675323 16.0742 0.620335 15.9592 0.610587L15.0918 0.536593C14.9768 0.526952 14.8627 0.563345 14.7746 0.637778C14.6864 0.71221 14.6314 0.818592 14.6217 0.933546L14.4968 2.40297C14.2248 2.35513 13.9525 2.30942 13.6798 2.26586C13.6147 2.14788 13.5232 2.04661 13.4123 1.97002C13.3015 1.89344 13.1744 1.84363 13.041 1.82451C12.9076 1.8054 12.7717 1.81751 12.6438 1.85988C12.5159 1.90225 12.3995 1.97373 12.304 2.06869C9.65892 1.73485 7.41954 1.73528 4.82063 2.06434C4.72506 1.97083 4.60923 1.9006 4.48212 1.85909C4.35502 1.81757 4.22006 1.8059 4.08772 1.82497C3.95538 1.84404 3.8292 1.89334 3.71899 1.96904C3.60878 2.04475 3.51748 2.14482 3.45219 2.26151C3.18408 2.30416 2.91117 2.3503 2.63261 2.39992L2.50813 0.93311V0.933546ZM5.48657 5.87804C5.28403 4.89849 5.15138 3.90578 5.08962 2.90743C7.49701 2.6145 9.59233 2.6145 12.0428 2.91352C12.0263 3.49328 11.9523 4.73898 11.7299 5.89501C11.5993 6.57444 11.4295 7.15769 11.2263 7.54985C11.0879 7.81666 10.993 7.89153 10.9616 7.90937H6.23303C6.18255 7.8567 6.10463 7.75007 6.01236 7.56378C5.81127 7.15769 5.63282 6.56095 5.48657 5.8776V5.87804ZM10.5233 5.08022C10.5233 5.59968 10.317 6.09787 9.94967 6.46519C9.58235 6.8325 9.08416 7.03886 8.56469 7.03886C8.04523 7.03886 7.54704 6.8325 7.17972 6.46519C6.8124 6.09787 6.60605 5.59968 6.60605 5.08022C6.60605 4.56075 6.8124 4.06256 7.17972 3.69524C7.54704 3.32793 8.04523 3.12157 8.56469 3.12157C9.08416 3.12157 9.58235 3.32793 9.94967 3.69524C10.317 4.06256 10.5233 4.56075 10.5233 5.08022V5.08022Z" fill="#1E1E1E"/>
</svg>
